Coordinates
version=1
nRows=5
nColumns=46
inDegrees=yes

Units are S.I. units (second, meters, Newtons, ...)
Angles are in degrees.

endheader
time	pelvis_tilt	pelvis_list	pelvis_rotation	pelvis_tx	pelvis_ty	pelvis_tz	bb_angle	bb_tx	bb_ty	bb_tz	hip_flexion_r	hip_adduction_r	hip_rotation_r	knee_angle_r	knee_angle_r_beta	ankle_angle_r	subtalar_angle_r	mtp_angle_r	crank_angle_r	hip_flexion_l	hip_adduction_l	hip_rotation_l	knee_angle_l	knee_angle_l_beta	ankle_angle_l	subtalar_angle_l	mtp_angle_l	crank_angle_l	lumbar_extension	lumbar_bending	lumbar_rotation	arm_flex_r	arm_add_r	arm_rot_r	elbow_flex_r	pro_sup_r	wrist_flex_r	wrist_dev_r	arm_flex_l	arm_add_l	arm_rot_l	elbow_flex_l	pro_sup_l	wrist_flex_l	wrist_dev_l
      0.00500000	    -11.10408871	     -3.55806166	     -1.49241962	      0.07819769	      1.10121177	     -0.26054390	      0.00000000	      0.50000000	      0.00000000	      0.25000000	     82.56078776	     -3.33570148	     -1.44404536	    102.38247735	      1.78691133	     14.55742141	     -5.56265315	      0.00000000	      0.00000000	     37.59468702	    -11.41506815	     -3.09709843	     53.84968842	      0.93985436	      8.50766984	     -0.37348444	      0.00000000	      0.00000000	    -52.08294822	      1.28789404	      4.02322258	     89.09990837	    -11.22389029	     43.57583730	     25.01559485	     29.75432647	      0.00000000	      0.00000000	     89.05628005	    -10.94936383	     25.83902510	     46.03120740	     29.81421393	      0.00000000	      0.00000000
      0.01000000	    -10.98592422	     -3.55966760	     -1.49232205	      0.07821592	      1.10147781	     -0.26053126	      0.00000000	      0.50000000	      0.00000000	      0.25000000	     82.41984199	     -3.34099564	     -1.45857771	    102.37599982	      1.78679827	     14.58049317	     -5.55338492	      0.00000000	      0.00000000	     37.43565369	    -11.42505012	     -3.11960676	     53.79212693	      0.93884973	      8.50130702	     -0.29142069	      0.00000000	      0.00000000	    -52.27582997	      1.28584391	      4.03966203	     89.07291597	    -11.29419358	     42.88528495	     25.46728481	     30.35665140	      0.00000000	      0.00000000	     89.03867621	    -10.97475106	     25.58363219	     46.23166143	     30.46020420	      0.00000000	      0.00000000
      0.01500000	    -11.10336890	     -3.55664239	     -1.46821507	      0.07816038	      1.10120837	     -0.26051977	      0.00000000	      0.50000000	      0.00000000	      0.25000000	     82.56506594	     -3.36571218	     -1.45976937	    102.38902273	      1.78702556	     14.54681418	     -5.58040811	      0.00000000	      0.00000000	     37.60933169	    -11.40317348	     -3.07501197	     53.85874437	      0.94001242	      8.49411713	     -0.37714091	      0.00000000	      0.00000000	    -52.08365009	      1.29321903	      4.06199554	     89.08962093	    -11.11078869	     42.68420105	     24.79440447	     30.53000320	      0.00000000	      0.00000000	     89.05942019	    -10.86901370	     25.83607993	     45.84318976	     30.77127945	      0.00000000	      0.00000000
      0.02000000	    -11.14625760	     -3.59447696	     -1.44260847	      0.07810314	      1.10125706	     -0.26059046	      0.00000000	      0.50000000	      0.00000000	      0.25000000	     82.58465054	     -3.40270130	     -1.49577744	    102.38193539	      1.78690187	     14.56127694	     -5.43145685	      0.00000000	      0.00000000	     37.70163745	    -11.43189297	     -3.02550612	     53.90323543	      0.94078894	      8.44420208	     -0.30303607	      0.00000000	      0.00000000	    -52.05412141	      1.36112231	      3.89495616	     89.13536428	    -11.25408181	     44.32652803	     24.90051349	     30.37512199	      0.00000000	      0.00000000	     89.02787561	    -11.22701238	     25.57135659	     46.69398897	     30.93937464	      0.00000000	      0.00000000
      0.02500000	    -11.15697956	     -3.60319433	     -1.44479016	      0.07801895	      1.10132599	     -0.26052491	      0.00000000	      0.50000000	      0.00000000	      0.25000000	     82.59488437	     -3.37959742	     -1.49142964	    102.37452436	      1.78677252	     14.60366027	     -5.53174107	      0.00000000	      0.00000000	     37.71970474	    -11.44336292	     -3.00886632	     53.89746687	      0.94068826	      8.45100380	     -0.26135419	      0.00000000	      0.00000000	    -52.03453873	      1.38721916	      3.84838584	     89.14493980	    -10.85432801	     43.15730609	     24.23533722	     32.17098774	      0.00000000	      0.00000000	     89.03314878	    -11.35421461	     25.43906272	     46.23776056	     32.82506596	      0.00000000	      0.00000000
